<mxfile host="app.diagrams.net" modified="2023-07-03T01:30:29.356Z" agent="Mozilla/5.0 (Windows NT 10.0; Win64; x64) AppleWebKit/537.36 (KHTML, like Gecko) Chrome/114.0.0.0 Safari/537.36" etag="ZPs9MNs83yy5A8JGb-NY" version="21.5.2" type="device">
  <diagram id="C5RBs43oDa-KdzZeNtuy" name="Page-1">
    <mxGraphModel dx="2261" dy="764" grid="1" gridSize="10" guides="1" tooltips="1" connect="1" arrows="1" fold="1" page="1" pageScale="1" pageWidth="827" pageHeight="1169" math="0" shadow="0">
      <root>
        <mxCell id="WIyWlLk6GJQsqaUBKTNV-0" />
        <mxCell id="WIyWlLk6GJQsqaUBKTNV-1" parent="WIyWlLk6GJQsqaUBKTNV-0" />
        <mxCell id="uo8QqCD3JJIa4EmMCRq2-1" value="로그인 중" style="rounded=0;whiteSpace=wrap;html=1;absoluteArcSize=1;arcSize=14;strokeWidth=2;labelBackgroundColor=none;" parent="WIyWlLk6GJQsqaUBKTNV-1" vertex="1">
          <mxGeometry x="575" y="330" width="70" height="30" as="geometry" />
        </mxCell>
        <mxCell id="uo8QqCD3JJIa4EmMCRq2-4" value="&lt;font style=&quot;font-size: 9px;&quot;&gt;LogoutCtrl&lt;br style=&quot;font-size: 9px;&quot;&gt;(모든 Session 해제)&amp;nbsp;&lt;/font&gt;" style="strokeWidth=2;html=1;shape=mxgraph.flowchart.start_2;whiteSpace=wrap;rounded=0;labelBackgroundColor=none;" parent="WIyWlLk6GJQsqaUBKTNV-1" vertex="1">
          <mxGeometry x="680" y="200" width="110" height="40" as="geometry" />
        </mxCell>
        <mxCell id="uo8QqCD3JJIa4EmMCRq2-5" value="&lt;font size=&quot;1&quot;&gt;LoginCtrl&lt;/font&gt;" style="strokeWidth=2;html=1;shape=mxgraph.flowchart.start_2;whiteSpace=wrap;rounded=0;labelBackgroundColor=none;" parent="WIyWlLk6GJQsqaUBKTNV-1" vertex="1">
          <mxGeometry x="555" y="150" width="60" height="30" as="geometry" />
        </mxCell>
        <mxCell id="uo8QqCD3JJIa4EmMCRq2-12" value="" style="text;strokeColor=none;fillColor=none;align=left;verticalAlign=middle;spacingTop=-1;spacingLeft=4;spacingRight=4;rotatable=0;labelPosition=right;points=[];portConstraint=eastwest;" parent="WIyWlLk6GJQsqaUBKTNV-1" vertex="1">
          <mxGeometry x="460" y="540" width="20" height="14" as="geometry" />
        </mxCell>
        <mxCell id="uo8QqCD3JJIa4EmMCRq2-19" value="로그아웃 클릭" style="endArrow=classic;html=1;rounded=0;" parent="WIyWlLk6GJQsqaUBKTNV-1" edge="1">
          <mxGeometry relative="1" as="geometry">
            <mxPoint x="645" y="310" as="sourcePoint" />
            <mxPoint x="692.5" y="256" as="targetPoint" />
          </mxGeometry>
        </mxCell>
        <mxCell id="uo8QqCD3JJIa4EmMCRq2-21" value="&lt;p style=&quot;line-height: 120%;&quot;&gt;&lt;font style=&quot;font-size: 11px;&quot;&gt;SESSION&lt;/font&gt;&lt;/p&gt;" style="strokeWidth=2;html=1;shape=mxgraph.flowchart.database;whiteSpace=wrap;verticalAlign=top;" parent="WIyWlLk6GJQsqaUBKTNV-1" vertex="1">
          <mxGeometry x="720" y="70" width="70" height="50" as="geometry" />
        </mxCell>
        <mxCell id="uo8QqCD3JJIa4EmMCRq2-24" value="" style="endArrow=classic;html=1;rounded=0;" parent="WIyWlLk6GJQsqaUBKTNV-1" edge="1">
          <mxGeometry relative="1" as="geometry">
            <mxPoint x="765" y="190" as="sourcePoint" />
            <mxPoint x="765" y="130" as="targetPoint" />
          </mxGeometry>
        </mxCell>
        <mxCell id="uo8QqCD3JJIa4EmMCRq2-25" value="모든 Session 해제" style="edgeLabel;html=1;align=center;verticalAlign=middle;resizable=0;points=[];" parent="uo8QqCD3JJIa4EmMCRq2-24" vertex="1" connectable="0">
          <mxGeometry x="0.0056" width="110" height="30" relative="1" as="geometry">
            <mxPoint x="-55" y="-15" as="offset" />
          </mxGeometry>
        </mxCell>
        <mxCell id="uo8QqCD3JJIa4EmMCRq2-26" value="" style="endArrow=classic;html=1;rounded=0;" parent="WIyWlLk6GJQsqaUBKTNV-1" edge="1">
          <mxGeometry relative="1" as="geometry">
            <mxPoint x="615" y="150" as="sourcePoint" />
            <mxPoint x="695" y="100" as="targetPoint" />
          </mxGeometry>
        </mxCell>
        <mxCell id="uo8QqCD3JJIa4EmMCRq2-27" value="ID,PW가 일치 할 시&lt;br&gt;ID를 Session에 저장" style="edgeLabel;html=1;align=center;verticalAlign=middle;resizable=0;points=[];" parent="uo8QqCD3JJIa4EmMCRq2-26" vertex="1" connectable="0">
          <mxGeometry x="0.0056" width="120" height="40" relative="1" as="geometry">
            <mxPoint x="-60" y="-20" as="offset" />
          </mxGeometry>
        </mxCell>
        <mxCell id="uo8QqCD3JJIa4EmMCRq2-28" value="ID, PW 일치" style="endArrow=classic;html=1;rounded=0;" parent="WIyWlLk6GJQsqaUBKTNV-1" edge="1">
          <mxGeometry x="-0.3333" relative="1" as="geometry">
            <mxPoint x="584.7" y="205" as="sourcePoint" />
            <mxPoint x="584.9100000000001" y="295" as="targetPoint" />
            <mxPoint as="offset" />
          </mxGeometry>
        </mxCell>
        <mxCell id="uo8QqCD3JJIa4EmMCRq2-29" value="Login.jsp" style="rounded=0;whiteSpace=wrap;html=1;absoluteArcSize=1;arcSize=14;strokeWidth=2;labelBackgroundColor=none;" parent="WIyWlLk6GJQsqaUBKTNV-1" vertex="1">
          <mxGeometry x="355" y="100" width="70" height="30" as="geometry" />
        </mxCell>
        <mxCell id="uo8QqCD3JJIa4EmMCRq2-31" value="" style="endArrow=classic;html=1;rounded=0;" parent="WIyWlLk6GJQsqaUBKTNV-1" edge="1">
          <mxGeometry relative="1" as="geometry">
            <mxPoint x="435" y="110" as="sourcePoint" />
            <mxPoint x="565" y="140" as="targetPoint" />
          </mxGeometry>
        </mxCell>
        <mxCell id="uo8QqCD3JJIa4EmMCRq2-32" value="ID,PW 판단" style="edgeLabel;html=1;align=center;verticalAlign=middle;resizable=0;points=[];" parent="uo8QqCD3JJIa4EmMCRq2-31" vertex="1" connectable="0">
          <mxGeometry x="0.0056" width="80" height="30" relative="1" as="geometry">
            <mxPoint x="-45" y="-16" as="offset" />
          </mxGeometry>
        </mxCell>
        <mxCell id="uo8QqCD3JJIa4EmMCRq2-33" value="ID, PW 불일치" style="endArrow=classic;html=1;rounded=0;" parent="WIyWlLk6GJQsqaUBKTNV-1" edge="1">
          <mxGeometry x="-0.1321" y="-2" relative="1" as="geometry">
            <mxPoint x="535" y="160" as="sourcePoint" />
            <mxPoint x="435" y="130" as="targetPoint" />
            <mxPoint as="offset" />
          </mxGeometry>
        </mxCell>
        <mxCell id="uo8QqCD3JJIa4EmMCRq2-35" value="Join.jsp" style="rounded=0;whiteSpace=wrap;html=1;absoluteArcSize=1;arcSize=14;strokeWidth=2;labelBackgroundColor=none;" parent="WIyWlLk6GJQsqaUBKTNV-1" vertex="1">
          <mxGeometry x="205" y="70" width="60" height="30" as="geometry" />
        </mxCell>
        <mxCell id="uo8QqCD3JJIa4EmMCRq2-36" value="" style="endArrow=classic;html=1;rounded=0;" parent="WIyWlLk6GJQsqaUBKTNV-1" edge="1">
          <mxGeometry relative="1" as="geometry">
            <mxPoint x="355" y="110.55000000000001" as="sourcePoint" />
            <mxPoint x="275" y="80.55000000000001" as="targetPoint" />
          </mxGeometry>
        </mxCell>
        <mxCell id="uo8QqCD3JJIa4EmMCRq2-37" value="회원이 아니면" style="edgeLabel;html=1;align=center;verticalAlign=middle;resizable=0;points=[];" parent="uo8QqCD3JJIa4EmMCRq2-36" vertex="1" connectable="0">
          <mxGeometry x="0.0056" width="90" height="30" relative="1" as="geometry">
            <mxPoint x="-50" y="-16" as="offset" />
          </mxGeometry>
        </mxCell>
        <mxCell id="uo8QqCD3JJIa4EmMCRq2-39" value="Join2.jsp" style="rounded=0;whiteSpace=wrap;html=1;absoluteArcSize=1;arcSize=14;strokeWidth=2;labelBackgroundColor=none;" parent="WIyWlLk6GJQsqaUBKTNV-1" vertex="1">
          <mxGeometry x="55" y="110" width="60" height="30" as="geometry" />
        </mxCell>
        <mxCell id="uo8QqCD3JJIa4EmMCRq2-40" value="" style="endArrow=classic;html=1;rounded=0;" parent="WIyWlLk6GJQsqaUBKTNV-1" edge="1">
          <mxGeometry relative="1" as="geometry">
            <mxPoint x="205" y="86.56" as="sourcePoint" />
            <mxPoint x="125" y="110" as="targetPoint" />
          </mxGeometry>
        </mxCell>
        <mxCell id="uo8QqCD3JJIa4EmMCRq2-41" value="약관동의" style="edgeLabel;html=1;align=center;verticalAlign=middle;resizable=0;points=[];" parent="uo8QqCD3JJIa4EmMCRq2-40" vertex="1" connectable="0">
          <mxGeometry x="0.0056" width="90" height="30" relative="1" as="geometry">
            <mxPoint x="-50" y="-16" as="offset" />
          </mxGeometry>
        </mxCell>
        <mxCell id="uo8QqCD3JJIa4EmMCRq2-42" value="&lt;font size=&quot;1&quot;&gt;JoinCtrl&lt;/font&gt;" style="strokeWidth=2;html=1;shape=mxgraph.flowchart.start_2;whiteSpace=wrap;rounded=0;labelBackgroundColor=none;" parent="WIyWlLk6GJQsqaUBKTNV-1" vertex="1">
          <mxGeometry x="155" y="200" width="60" height="30" as="geometry" />
        </mxCell>
        <mxCell id="uo8QqCD3JJIa4EmMCRq2-45" value="회원가입 클릭" style="endArrow=classic;html=1;rounded=0;" parent="WIyWlLk6GJQsqaUBKTNV-1" edge="1">
          <mxGeometry relative="1" as="geometry">
            <mxPoint x="85" y="150" as="sourcePoint" />
            <mxPoint x="155" y="200" as="targetPoint" />
            <mxPoint as="offset" />
          </mxGeometry>
        </mxCell>
        <mxCell id="uo8QqCD3JJIa4EmMCRq2-46" value="회원가입 후&lt;br&gt;index.jsp로 이동" style="endArrow=classic;html=1;rounded=0;" parent="WIyWlLk6GJQsqaUBKTNV-1" edge="1">
          <mxGeometry relative="1" as="geometry">
            <mxPoint x="225" y="220" as="sourcePoint" />
            <mxPoint x="355" y="240" as="targetPoint" />
            <mxPoint as="offset" />
          </mxGeometry>
        </mxCell>
        <mxCell id="uo8QqCD3JJIa4EmMCRq2-47" value="index.jsp" style="rounded=0;whiteSpace=wrap;html=1;absoluteArcSize=1;arcSize=14;strokeWidth=2;labelBackgroundColor=none;" parent="WIyWlLk6GJQsqaUBKTNV-1" vertex="1">
          <mxGeometry x="385" y="230" width="70" height="30" as="geometry" />
        </mxCell>
        <mxCell id="uo8QqCD3JJIa4EmMCRq2-48" value="로그인 클릭" style="endArrow=classic;html=1;rounded=0;" parent="WIyWlLk6GJQsqaUBKTNV-1" edge="1">
          <mxGeometry x="-0.3336" relative="1" as="geometry">
            <mxPoint x="417.89" y="230" as="sourcePoint" />
            <mxPoint x="405" y="150" as="targetPoint" />
            <mxPoint as="offset" />
          </mxGeometry>
        </mxCell>
        <mxCell id="uo8QqCD3JJIa4EmMCRq2-49" value="회원가입 클릭" style="endArrow=classic;html=1;rounded=0;" parent="WIyWlLk6GJQsqaUBKTNV-1" edge="1">
          <mxGeometry x="-0.2787" y="3" relative="1" as="geometry">
            <mxPoint x="375" y="220" as="sourcePoint" />
            <mxPoint x="255" y="120" as="targetPoint" />
            <mxPoint x="-1" as="offset" />
          </mxGeometry>
        </mxCell>
        <mxCell id="uo8QqCD3JJIa4EmMCRq2-50" value="my_info1.jsp" style="rounded=0;whiteSpace=wrap;html=1;absoluteArcSize=1;arcSize=14;strokeWidth=2;labelBackgroundColor=none;" parent="WIyWlLk6GJQsqaUBKTNV-1" vertex="1">
          <mxGeometry x="395" y="330" width="70" height="30" as="geometry" />
        </mxCell>
        <mxCell id="uo8QqCD3JJIa4EmMCRq2-51" value="my_info2.jsp" style="rounded=0;whiteSpace=wrap;html=1;absoluteArcSize=1;arcSize=14;strokeWidth=2;labelBackgroundColor=none;" parent="WIyWlLk6GJQsqaUBKTNV-1" vertex="1">
          <mxGeometry x="150" y="410" width="70" height="30" as="geometry" />
        </mxCell>
        <mxCell id="uo8QqCD3JJIa4EmMCRq2-52" value="" style="endArrow=classic;html=1;rounded=0;" parent="WIyWlLk6GJQsqaUBKTNV-1" edge="1">
          <mxGeometry relative="1" as="geometry">
            <mxPoint x="570.45" y="346.56" as="sourcePoint" />
            <mxPoint x="480.15999999999997" y="345.45" as="targetPoint" />
          </mxGeometry>
        </mxCell>
        <mxCell id="uo8QqCD3JJIa4EmMCRq2-53" value="내 정보 클릭" style="edgeLabel;html=1;align=center;verticalAlign=middle;resizable=0;points=[];" parent="uo8QqCD3JJIa4EmMCRq2-52" vertex="1" connectable="0">
          <mxGeometry x="0.0056" width="90" height="30" relative="1" as="geometry">
            <mxPoint x="-40" y="-16" as="offset" />
          </mxGeometry>
        </mxCell>
        <mxCell id="uo8QqCD3JJIa4EmMCRq2-57" value="&lt;font size=&quot;1&quot;&gt;PwCheckCtrl&lt;/font&gt;" style="strokeWidth=2;html=1;shape=mxgraph.flowchart.start_2;whiteSpace=wrap;rounded=0;labelBackgroundColor=none;" parent="WIyWlLk6GJQsqaUBKTNV-1" vertex="1">
          <mxGeometry x="305" y="430" width="80" height="30" as="geometry" />
        </mxCell>
        <mxCell id="uo8QqCD3JJIa4EmMCRq2-58" value="" style="endArrow=classic;html=1;rounded=0;" parent="WIyWlLk6GJQsqaUBKTNV-1" edge="1">
          <mxGeometry relative="1" as="geometry">
            <mxPoint x="391.78000000000003" y="370" as="sourcePoint" />
            <mxPoint x="346.33" y="413.44" as="targetPoint" />
          </mxGeometry>
        </mxCell>
        <mxCell id="uo8QqCD3JJIa4EmMCRq2-59" value="PW 입력" style="edgeLabel;html=1;align=center;verticalAlign=middle;resizable=0;points=[];" parent="uo8QqCD3JJIa4EmMCRq2-58" vertex="1" connectable="0">
          <mxGeometry x="0.0056" width="90" height="30" relative="1" as="geometry">
            <mxPoint x="-40" y="-16" as="offset" />
          </mxGeometry>
        </mxCell>
        <mxCell id="uo8QqCD3JJIa4EmMCRq2-60" value="" style="endArrow=classic;html=1;rounded=0;" parent="WIyWlLk6GJQsqaUBKTNV-1" edge="1">
          <mxGeometry relative="1" as="geometry">
            <mxPoint x="295" y="440" as="sourcePoint" />
            <mxPoint x="235" y="430" as="targetPoint" />
          </mxGeometry>
        </mxCell>
        <mxCell id="uo8QqCD3JJIa4EmMCRq2-61" value="PW 일치" style="edgeLabel;html=1;align=center;verticalAlign=middle;resizable=0;points=[];" parent="uo8QqCD3JJIa4EmMCRq2-60" vertex="1" connectable="0">
          <mxGeometry x="0.0056" width="90" height="30" relative="1" as="geometry">
            <mxPoint x="-40" y="-16" as="offset" />
          </mxGeometry>
        </mxCell>
        <mxCell id="uo8QqCD3JJIa4EmMCRq2-62" value="" style="endArrow=classic;html=1;rounded=0;" parent="WIyWlLk6GJQsqaUBKTNV-1" edge="1">
          <mxGeometry relative="1" as="geometry">
            <mxPoint x="381.55" y="440" as="sourcePoint" />
            <mxPoint x="435" y="380" as="targetPoint" />
          </mxGeometry>
        </mxCell>
        <mxCell id="uo8QqCD3JJIa4EmMCRq2-63" value="PW 불일치" style="edgeLabel;html=1;align=center;verticalAlign=middle;resizable=0;points=[];" parent="uo8QqCD3JJIa4EmMCRq2-62" vertex="1" connectable="0">
          <mxGeometry x="0.0056" width="90" height="30" relative="1" as="geometry">
            <mxPoint x="-40" y="-16" as="offset" />
          </mxGeometry>
        </mxCell>
        <mxCell id="uo8QqCD3JJIa4EmMCRq2-64" value="&lt;font size=&quot;1&quot;&gt;DeleteCtrl&lt;/font&gt;" style="strokeWidth=2;html=1;shape=mxgraph.flowchart.start_2;whiteSpace=wrap;rounded=0;labelBackgroundColor=none;" parent="WIyWlLk6GJQsqaUBKTNV-1" vertex="1">
          <mxGeometry x="245" y="330" width="60" height="30" as="geometry" />
        </mxCell>
        <mxCell id="uo8QqCD3JJIa4EmMCRq2-65" value="" style="endArrow=classic;html=1;rounded=0;" parent="WIyWlLk6GJQsqaUBKTNV-1" edge="1">
          <mxGeometry relative="1" as="geometry">
            <mxPoint x="205" y="406" as="sourcePoint" />
            <mxPoint x="248.45" y="356" as="targetPoint" />
          </mxGeometry>
        </mxCell>
        <mxCell id="uo8QqCD3JJIa4EmMCRq2-66" value="탈퇴" style="edgeLabel;html=1;align=center;verticalAlign=middle;resizable=0;points=[];" parent="uo8QqCD3JJIa4EmMCRq2-65" vertex="1" connectable="0">
          <mxGeometry x="0.0056" width="90" height="30" relative="1" as="geometry">
            <mxPoint x="-40" y="-16" as="offset" />
          </mxGeometry>
        </mxCell>
        <mxCell id="uo8QqCD3JJIa4EmMCRq2-67" value="" style="endArrow=classic;html=1;rounded=0;" parent="WIyWlLk6GJQsqaUBKTNV-1" edge="1">
          <mxGeometry relative="1" as="geometry">
            <mxPoint x="303.14" y="340" as="sourcePoint" />
            <mxPoint x="395" y="280" as="targetPoint" />
          </mxGeometry>
        </mxCell>
        <mxCell id="uo8QqCD3JJIa4EmMCRq2-68" value="탈퇴 후 &lt;br&gt;index.jsp 로 이동" style="edgeLabel;html=1;align=center;verticalAlign=middle;resizable=0;points=[];" parent="uo8QqCD3JJIa4EmMCRq2-67" vertex="1" connectable="0">
          <mxGeometry x="0.0056" width="90" height="30" relative="1" as="geometry">
            <mxPoint x="-40" y="-16" as="offset" />
          </mxGeometry>
        </mxCell>
        <mxCell id="uo8QqCD3JJIa4EmMCRq2-69" value="&lt;font size=&quot;1&quot;&gt;UpdateMemeberCtrl&lt;/font&gt;" style="strokeWidth=2;html=1;shape=mxgraph.flowchart.start_2;whiteSpace=wrap;rounded=0;labelBackgroundColor=none;" parent="WIyWlLk6GJQsqaUBKTNV-1" vertex="1">
          <mxGeometry x="30" y="320" width="110" height="30" as="geometry" />
        </mxCell>
        <mxCell id="uo8QqCD3JJIa4EmMCRq2-70" value="" style="endArrow=classic;html=1;rounded=0;" parent="WIyWlLk6GJQsqaUBKTNV-1" edge="1">
          <mxGeometry relative="1" as="geometry">
            <mxPoint x="154.89" y="400.98" as="sourcePoint" />
            <mxPoint x="95" y="360" as="targetPoint" />
          </mxGeometry>
        </mxCell>
        <mxCell id="uo8QqCD3JJIa4EmMCRq2-71" value="수정 클릭" style="edgeLabel;html=1;align=center;verticalAlign=middle;resizable=0;points=[];" parent="uo8QqCD3JJIa4EmMCRq2-70" vertex="1" connectable="0">
          <mxGeometry x="0.0056" width="90" height="30" relative="1" as="geometry">
            <mxPoint x="-40" y="-16" as="offset" />
          </mxGeometry>
        </mxCell>
        <mxCell id="uo8QqCD3JJIa4EmMCRq2-72" value="" style="endArrow=classic;html=1;rounded=0;" parent="WIyWlLk6GJQsqaUBKTNV-1" edge="1">
          <mxGeometry relative="1" as="geometry">
            <mxPoint x="103.14" y="310" as="sourcePoint" />
            <mxPoint x="325" y="270" as="targetPoint" />
          </mxGeometry>
        </mxCell>
        <mxCell id="uo8QqCD3JJIa4EmMCRq2-73" value="수정완료 후&lt;br&gt;index.jsp로 이동" style="edgeLabel;html=1;align=center;verticalAlign=middle;resizable=0;points=[];" parent="uo8QqCD3JJIa4EmMCRq2-72" vertex="1" connectable="0">
          <mxGeometry x="0.0056" width="90" height="30" relative="1" as="geometry">
            <mxPoint x="-40" y="-16" as="offset" />
          </mxGeometry>
        </mxCell>
        <mxCell id="uo8QqCD3JJIa4EmMCRq2-75" value="&lt;b&gt;로그인, 회원가입,내정보 구역&lt;/b&gt;" style="text;html=1;strokeColor=default;fillColor=none;align=center;verticalAlign=middle;whiteSpace=wrap;rounded=0;strokeWidth=1;" parent="WIyWlLk6GJQsqaUBKTNV-1" vertex="1">
          <mxGeometry x="305" y="20" width="230" height="30" as="geometry" />
        </mxCell>
        <mxCell id="C3OuVpFGxADdzFwiI84V-1" value="&lt;b&gt;게시판 구역&lt;/b&gt;" style="rounded=0;whiteSpace=wrap;html=1;" parent="WIyWlLk6GJQsqaUBKTNV-1" vertex="1">
          <mxGeometry x="292.5" y="520" width="205" height="30" as="geometry" />
        </mxCell>
        <mxCell id="LrpEwijxWvP946g5pnKB-3" value="boardList.jsp" style="whiteSpace=wrap;html=1;aspect=fixed;" parent="WIyWlLk6GJQsqaUBKTNV-1" vertex="1">
          <mxGeometry x="355" y="770" width="80" height="80" as="geometry" />
        </mxCell>
        <mxCell id="LrpEwijxWvP946g5pnKB-9" value="Login.jsp" style="rounded=0;whiteSpace=wrap;html=1;" parent="WIyWlLk6GJQsqaUBKTNV-1" vertex="1">
          <mxGeometry x="535" y="980" width="120" height="30" as="geometry" />
        </mxCell>
        <mxCell id="LrpEwijxWvP946g5pnKB-15" value="index.html" style="whiteSpace=wrap;html=1;aspect=fixed;" parent="WIyWlLk6GJQsqaUBKTNV-1" vertex="1">
          <mxGeometry x="357.5" y="990" width="80" height="80" as="geometry" />
        </mxCell>
        <mxCell id="LrpEwijxWvP946g5pnKB-16" value="" style="endArrow=classic;html=1;rounded=0;" parent="WIyWlLk6GJQsqaUBKTNV-1" edge="1">
          <mxGeometry width="50" height="50" relative="1" as="geometry">
            <mxPoint x="397.24" y="980" as="sourcePoint" />
            <mxPoint x="397.5" y="930" as="targetPoint" />
          </mxGeometry>
        </mxCell>
        <mxCell id="LrpEwijxWvP946g5pnKB-17" value="&lt;div style=&quot;text-align: center;&quot;&gt;&lt;span style=&quot;font-size: 11px; background-color: rgb(255, 255, 255);&quot;&gt;공지사항 클릭(로그인시)&lt;/span&gt;&lt;/div&gt;" style="text;whiteSpace=wrap;html=1;" parent="WIyWlLk6GJQsqaUBKTNV-1" vertex="1">
          <mxGeometry x="357.5" y="940" width="75" height="20" as="geometry" />
        </mxCell>
        <mxCell id="LrpEwijxWvP946g5pnKB-21" value="" style="endArrow=classic;html=1;rounded=0;" parent="WIyWlLk6GJQsqaUBKTNV-1" edge="1">
          <mxGeometry width="50" height="50" relative="1" as="geometry">
            <mxPoint x="535" y="1020" as="sourcePoint" />
            <mxPoint x="455" y="1060" as="targetPoint" />
          </mxGeometry>
        </mxCell>
        <mxCell id="LrpEwijxWvP946g5pnKB-23" value="&lt;font style=&quot;font-size: 11px; font-weight: normal;&quot;&gt;로그인&lt;/font&gt;" style="text;html=1;fontSize=24;fontStyle=1;verticalAlign=middle;align=center;labelBorderColor=none;labelBackgroundColor=default;" parent="WIyWlLk6GJQsqaUBKTNV-1" vertex="1">
          <mxGeometry x="445" y="1030" width="100" height="20" as="geometry" />
        </mxCell>
        <mxCell id="LrpEwijxWvP946g5pnKB-26" value="&lt;font size=&quot;1&quot;&gt;BoardListCtrl&lt;/font&gt;" style="strokeWidth=2;html=1;shape=mxgraph.flowchart.start_2;whiteSpace=wrap;rounded=0;labelBackgroundColor=none;" parent="WIyWlLk6GJQsqaUBKTNV-1" vertex="1">
          <mxGeometry x="340" y="890" width="110" height="30" as="geometry" />
        </mxCell>
        <mxCell id="LrpEwijxWvP946g5pnKB-32" value="" style="endArrow=classic;html=1;rounded=0;" parent="WIyWlLk6GJQsqaUBKTNV-1" edge="1">
          <mxGeometry width="50" height="50" relative="1" as="geometry">
            <mxPoint x="340" y="810" as="sourcePoint" />
            <mxPoint x="200" y="840" as="targetPoint" />
          </mxGeometry>
        </mxCell>
        <mxCell id="LrpEwijxWvP946g5pnKB-33" value="&lt;div style=&quot;text-align: center;&quot;&gt;캠퍼스 선택&lt;/div&gt;" style="text;whiteSpace=wrap;html=1;labelBorderColor=none;labelBackgroundColor=default;" parent="WIyWlLk6GJQsqaUBKTNV-1" vertex="1">
          <mxGeometry x="232.5" y="810" width="77.5" height="20" as="geometry" />
        </mxCell>
        <mxCell id="LrpEwijxWvP946g5pnKB-36" value="&lt;font size=&quot;1&quot;&gt;BoardCamCtrl&lt;/font&gt;" style="strokeWidth=2;html=1;shape=mxgraph.flowchart.start_2;whiteSpace=wrap;rounded=0;labelBackgroundColor=none;" parent="WIyWlLk6GJQsqaUBKTNV-1" vertex="1">
          <mxGeometry x="70" y="830" width="110" height="30" as="geometry" />
        </mxCell>
        <mxCell id="LrpEwijxWvP946g5pnKB-38" value="addBoard.jsp" style="rounded=0;whiteSpace=wrap;html=1;" parent="WIyWlLk6GJQsqaUBKTNV-1" vertex="1">
          <mxGeometry x="190" y="920" width="120" height="30" as="geometry" />
        </mxCell>
        <mxCell id="LrpEwijxWvP946g5pnKB-39" value="" style="endArrow=classic;html=1;rounded=0;" parent="WIyWlLk6GJQsqaUBKTNV-1" edge="1">
          <mxGeometry width="50" height="50" relative="1" as="geometry">
            <mxPoint x="330" y="820" as="sourcePoint" />
            <mxPoint x="245" y="910" as="targetPoint" />
          </mxGeometry>
        </mxCell>
        <mxCell id="LrpEwijxWvP946g5pnKB-42" value="글쓰기 클릭" style="edgeLabel;html=1;align=center;verticalAlign=middle;resizable=0;points=[];" parent="WIyWlLk6GJQsqaUBKTNV-1" vertex="1" connectable="0">
          <mxGeometry x="239.99954701285407" y="850.0004898411547" width="90" height="30" as="geometry" />
        </mxCell>
        <mxCell id="LrpEwijxWvP946g5pnKB-44" value="&lt;font size=&quot;1&quot;&gt;BoardInfoCtrl&lt;/font&gt;" style="strokeWidth=2;html=1;shape=mxgraph.flowchart.start_2;whiteSpace=wrap;rounded=0;labelBackgroundColor=none;" parent="WIyWlLk6GJQsqaUBKTNV-1" vertex="1">
          <mxGeometry x="190" y="1050" width="110" height="30" as="geometry" />
        </mxCell>
        <mxCell id="LrpEwijxWvP946g5pnKB-48" value="" style="endArrow=classic;html=1;rounded=0;" parent="WIyWlLk6GJQsqaUBKTNV-1" edge="1">
          <mxGeometry width="50" height="50" relative="1" as="geometry">
            <mxPoint x="244.5" y="1010" as="sourcePoint" />
            <mxPoint x="244.5" y="1050" as="targetPoint" />
            <Array as="points">
              <mxPoint x="244.5" y="1010" />
            </Array>
          </mxGeometry>
        </mxCell>
        <mxCell id="LrpEwijxWvP946g5pnKB-49" value="updateBoard.jsp" style="rounded=0;whiteSpace=wrap;html=1;" parent="WIyWlLk6GJQsqaUBKTNV-1" vertex="1">
          <mxGeometry y="1280" width="110" height="30" as="geometry" />
        </mxCell>
        <mxCell id="LrpEwijxWvP946g5pnKB-55" value="&lt;font style=&quot;font-size: 15px;&quot;&gt;view&lt;/font&gt;" style="text;strokeColor=none;fillColor=none;html=1;fontSize=24;fontStyle=1;verticalAlign=middle;align=center;" parent="WIyWlLk6GJQsqaUBKTNV-1" vertex="1">
          <mxGeometry x="215" y="1020" width="100" height="40" as="geometry" />
        </mxCell>
        <mxCell id="LrpEwijxWvP946g5pnKB-56" value="" style="endArrow=classic;html=1;rounded=0;" parent="WIyWlLk6GJQsqaUBKTNV-1" edge="1">
          <mxGeometry width="50" height="50" relative="1" as="geometry">
            <mxPoint x="190" y="1169" as="sourcePoint" />
            <mxPoint x="170" y="1199" as="targetPoint" />
          </mxGeometry>
        </mxCell>
        <mxCell id="LrpEwijxWvP946g5pnKB-71" value="글 수정 클릭" style="edgeLabel;html=1;align=center;verticalAlign=middle;resizable=0;points=[];" parent="LrpEwijxWvP946g5pnKB-56" vertex="1" connectable="0">
          <mxGeometry x="-0.0555" y="2" relative="1" as="geometry">
            <mxPoint x="3" y="-4" as="offset" />
          </mxGeometry>
        </mxCell>
        <mxCell id="LrpEwijxWvP946g5pnKB-57" value="&lt;font size=&quot;1&quot;&gt;UpdateBoardCtrl1&lt;/font&gt;" style="strokeWidth=2;html=1;shape=mxgraph.flowchart.start_2;whiteSpace=wrap;rounded=0;labelBackgroundColor=none;" parent="WIyWlLk6GJQsqaUBKTNV-1" vertex="1">
          <mxGeometry x="95" y="1200" width="90" height="30" as="geometry" />
        </mxCell>
        <mxCell id="LrpEwijxWvP946g5pnKB-59" value="글 작성하기 클릭" style="edgeLabel;html=1;align=center;verticalAlign=middle;resizable=0;points=[];" parent="WIyWlLk6GJQsqaUBKTNV-1" vertex="1" connectable="0">
          <mxGeometry x="202.49954701285407" y="1010.0004898411547" width="90" height="30" as="geometry" />
        </mxCell>
        <mxCell id="LrpEwijxWvP946g5pnKB-60" value="searchBoardCtrl" style="rounded=0;whiteSpace=wrap;html=1;" parent="WIyWlLk6GJQsqaUBKTNV-1" vertex="1">
          <mxGeometry x="120" y="620" width="120" height="30" as="geometry" />
        </mxCell>
        <mxCell id="LrpEwijxWvP946g5pnKB-65" value="boardInfo.jsp" style="rounded=0;whiteSpace=wrap;html=1;absoluteArcSize=1;arcSize=14;strokeWidth=2;labelBackgroundColor=none;" parent="WIyWlLk6GJQsqaUBKTNV-1" vertex="1">
          <mxGeometry x="187.5" y="1130" width="115" height="30" as="geometry" />
        </mxCell>
        <mxCell id="LrpEwijxWvP946g5pnKB-68" value="" style="endArrow=classic;html=1;rounded=0;" parent="WIyWlLk6GJQsqaUBKTNV-1" edge="1">
          <mxGeometry width="50" height="50" relative="1" as="geometry">
            <mxPoint x="247.14" y="1090" as="sourcePoint" />
            <mxPoint x="247.14" y="1120" as="targetPoint" />
          </mxGeometry>
        </mxCell>
        <mxCell id="LrpEwijxWvP946g5pnKB-72" value="&lt;font size=&quot;1&quot;&gt;DeleteBoardCtrl&lt;/font&gt;" style="strokeWidth=2;html=1;shape=mxgraph.flowchart.start_2;whiteSpace=wrap;rounded=0;labelBackgroundColor=none;" parent="WIyWlLk6GJQsqaUBKTNV-1" vertex="1">
          <mxGeometry x="315" y="1200" width="90" height="30" as="geometry" />
        </mxCell>
        <mxCell id="LrpEwijxWvP946g5pnKB-73" value="" style="endArrow=classic;html=1;rounded=0;" parent="WIyWlLk6GJQsqaUBKTNV-1" edge="1">
          <mxGeometry width="50" height="50" relative="1" as="geometry">
            <mxPoint x="295" y="1169" as="sourcePoint" />
            <mxPoint x="310" y="1200" as="targetPoint" />
          </mxGeometry>
        </mxCell>
        <mxCell id="LrpEwijxWvP946g5pnKB-74" value="글 삭제 클릭" style="edgeLabel;html=1;align=center;verticalAlign=middle;resizable=0;points=[];" parent="WIyWlLk6GJQsqaUBKTNV-1" vertex="1" connectable="0">
          <mxGeometry x="302.50100634970204" y="1179.999041750911" as="geometry" />
        </mxCell>
        <mxCell id="LrpEwijxWvP946g5pnKB-75" value="" style="endArrow=classic;html=1;rounded=0;" parent="WIyWlLk6GJQsqaUBKTNV-1" edge="1">
          <mxGeometry width="50" height="50" relative="1" as="geometry">
            <mxPoint x="100" y="1230" as="sourcePoint" />
            <mxPoint x="70" y="1270" as="targetPoint" />
          </mxGeometry>
        </mxCell>
        <mxCell id="ASFgIfwJf36T05bOqQ6P-0" value="&lt;font size=&quot;1&quot;&gt;AddBoardCtrl&lt;/font&gt;" style="strokeWidth=2;html=1;shape=mxgraph.flowchart.start_2;whiteSpace=wrap;rounded=0;labelBackgroundColor=none;" vertex="1" parent="WIyWlLk6GJQsqaUBKTNV-1">
          <mxGeometry x="192.5" y="980" width="110" height="30" as="geometry" />
        </mxCell>
        <mxCell id="ASFgIfwJf36T05bOqQ6P-1" value="" style="endArrow=classic;html=1;rounded=0;" edge="1" parent="WIyWlLk6GJQsqaUBKTNV-1">
          <mxGeometry width="50" height="50" relative="1" as="geometry">
            <mxPoint x="245" y="950" as="sourcePoint" />
            <mxPoint x="244.76" y="980" as="targetPoint" />
          </mxGeometry>
        </mxCell>
        <mxCell id="ASFgIfwJf36T05bOqQ6P-2" value="&lt;font size=&quot;1&quot;&gt;SearchCtrl&lt;/font&gt;" style="strokeWidth=2;html=1;shape=mxgraph.flowchart.start_2;whiteSpace=wrap;rounded=0;labelBackgroundColor=none;" vertex="1" parent="WIyWlLk6GJQsqaUBKTNV-1">
          <mxGeometry x="130" y="720" width="110" height="30" as="geometry" />
        </mxCell>
        <mxCell id="ASFgIfwJf36T05bOqQ6P-6" value="" style="endArrow=classic;html=1;rounded=0;exitX=0.5;exitY=0;exitDx=0;exitDy=0;exitPerimeter=0;" edge="1" parent="WIyWlLk6GJQsqaUBKTNV-1">
          <mxGeometry width="50" height="50" relative="1" as="geometry">
            <mxPoint x="100" y="869.9999999999998" as="sourcePoint" />
            <mxPoint x="80" y="940" as="targetPoint" />
          </mxGeometry>
        </mxCell>
        <mxCell id="ASFgIfwJf36T05bOqQ6P-7" value="&lt;span style=&quot;font-size: 11px; font-weight: 400;&quot;&gt;boardType선택시&lt;/span&gt;" style="text;html=1;fontSize=24;fontStyle=1;verticalAlign=middle;align=center;labelBorderColor=none;labelBackgroundColor=default;" vertex="1" parent="WIyWlLk6GJQsqaUBKTNV-1">
          <mxGeometry x="35" y="890" width="100" height="20" as="geometry" />
        </mxCell>
        <mxCell id="ASFgIfwJf36T05bOqQ6P-13" value="" style="endArrow=classic;html=1;rounded=0;" edge="1" parent="WIyWlLk6GJQsqaUBKTNV-1">
          <mxGeometry width="50" height="50" relative="1" as="geometry">
            <mxPoint x="340" y="790" as="sourcePoint" />
            <mxPoint x="248.13" y="730" as="targetPoint" />
          </mxGeometry>
        </mxCell>
        <mxCell id="ASFgIfwJf36T05bOqQ6P-14" value="&lt;font style=&quot;font-size: 11px; font-weight: normal;&quot;&gt;boardType선택후&lt;br&gt;검색어입력&lt;br&gt;&lt;/font&gt;" style="text;html=1;fontSize=24;fontStyle=1;verticalAlign=middle;align=center;labelBorderColor=none;labelBackgroundColor=default;" vertex="1" parent="WIyWlLk6GJQsqaUBKTNV-1">
          <mxGeometry x="240" y="760" width="100" height="20" as="geometry" />
        </mxCell>
        <mxCell id="ASFgIfwJf36T05bOqQ6P-15" value="" style="endArrow=classic;html=1;rounded=0;" edge="1" parent="WIyWlLk6GJQsqaUBKTNV-1">
          <mxGeometry width="50" height="50" relative="1" as="geometry">
            <mxPoint x="179" y="710" as="sourcePoint" />
            <mxPoint x="178.82" y="660" as="targetPoint" />
          </mxGeometry>
        </mxCell>
        <mxCell id="ASFgIfwJf36T05bOqQ6P-16" value="&lt;span style=&quot;font-size: 11px; font-weight: 400;&quot;&gt;검색&lt;/span&gt;" style="text;html=1;fontSize=24;fontStyle=1;verticalAlign=middle;align=center;labelBorderColor=none;labelBackgroundColor=default;" vertex="1" parent="WIyWlLk6GJQsqaUBKTNV-1">
          <mxGeometry x="130" y="675" width="100" height="20" as="geometry" />
        </mxCell>
        <mxCell id="ASFgIfwJf36T05bOqQ6P-17" value="SelectCampus.jsp" style="rounded=0;whiteSpace=wrap;html=1;" vertex="1" parent="WIyWlLk6GJQsqaUBKTNV-1">
          <mxGeometry x="-5" y="950" width="120" height="30" as="geometry" />
        </mxCell>
        <mxCell id="ASFgIfwJf36T05bOqQ6P-18" value="" style="endArrow=classic;html=1;rounded=0;" edge="1" parent="WIyWlLk6GJQsqaUBKTNV-1">
          <mxGeometry width="50" height="50" relative="1" as="geometry">
            <mxPoint x="20" y="1260" as="sourcePoint" />
            <mxPoint x="40" y="1150" as="targetPoint" />
          </mxGeometry>
        </mxCell>
        <mxCell id="ASFgIfwJf36T05bOqQ6P-20" value="글수정 클릭" style="edgeLabel;html=1;align=center;verticalAlign=middle;resizable=0;points=[];" vertex="1" connectable="0" parent="WIyWlLk6GJQsqaUBKTNV-1">
          <mxGeometry x="-30.000452987145934" y="1180.0004898411548" width="90" height="30" as="geometry" />
        </mxCell>
        <mxCell id="ASFgIfwJf36T05bOqQ6P-21" value="값을 가지고 감" style="edgeLabel;html=1;align=center;verticalAlign=middle;resizable=0;points=[];" vertex="1" connectable="0" parent="WIyWlLk6GJQsqaUBKTNV-1">
          <mxGeometry x="84.99686649871043" y="1250.0002515273986" as="geometry" />
        </mxCell>
        <mxCell id="ASFgIfwJf36T05bOqQ6P-22" value="&lt;font size=&quot;1&quot;&gt;UpdateBoardCtrl2&lt;/font&gt;" style="strokeWidth=2;html=1;shape=mxgraph.flowchart.start_2;whiteSpace=wrap;rounded=0;labelBackgroundColor=none;" vertex="1" parent="WIyWlLk6GJQsqaUBKTNV-1">
          <mxGeometry y="1110" width="110" height="30" as="geometry" />
        </mxCell>
        <mxCell id="ASFgIfwJf36T05bOqQ6P-23" value="" style="endArrow=classic;html=1;rounded=0;" edge="1" parent="WIyWlLk6GJQsqaUBKTNV-1">
          <mxGeometry width="50" height="50" relative="1" as="geometry">
            <mxPoint x="105" y="1110" as="sourcePoint" />
            <mxPoint x="180" y="1070" as="targetPoint" />
          </mxGeometry>
        </mxCell>
        <mxCell id="ASFgIfwJf36T05bOqQ6P-28" value="" style="endArrow=classic;html=1;rounded=0;" edge="1" parent="WIyWlLk6GJQsqaUBKTNV-1">
          <mxGeometry width="50" height="50" relative="1" as="geometry">
            <mxPoint x="447.5" y="1030" as="sourcePoint" />
            <mxPoint x="520" y="990" as="targetPoint" />
          </mxGeometry>
        </mxCell>
        <mxCell id="ASFgIfwJf36T05bOqQ6P-29" value="&lt;span style=&quot;font-size: 11px; font-weight: 400;&quot;&gt;비로그인 시&lt;/span&gt;" style="text;html=1;fontSize=24;fontStyle=1;verticalAlign=middle;align=center;labelBorderColor=none;labelBackgroundColor=default;" vertex="1" parent="WIyWlLk6GJQsqaUBKTNV-1">
          <mxGeometry x="425" y="1000" width="100" height="20" as="geometry" />
        </mxCell>
        <mxCell id="ASFgIfwJf36T05bOqQ6P-32" value="" style="endArrow=classic;html=1;rounded=0;" edge="1" parent="WIyWlLk6GJQsqaUBKTNV-1">
          <mxGeometry width="50" height="50" relative="1" as="geometry">
            <mxPoint x="397.2" y="880" as="sourcePoint" />
            <mxPoint x="397.2" y="850" as="targetPoint" />
          </mxGeometry>
        </mxCell>
        <mxCell id="ASFgIfwJf36T05bOqQ6P-35" value="" style="endArrow=classic;html=1;rounded=0;" edge="1" parent="WIyWlLk6GJQsqaUBKTNV-1">
          <mxGeometry width="50" height="50" relative="1" as="geometry">
            <mxPoint x="345" y="1190" as="sourcePoint" />
            <mxPoint x="350" y="930" as="targetPoint" />
          </mxGeometry>
        </mxCell>
      </root>
    </mxGraphModel>
  </diagram>
</mxfile>
